<svg width="17" height="18" viewBox="0 0 17 18" fill="none" xmlns="http://www.w3.org/2000/svg">
<path d="M9.87374 17.7778C8.76936 17.7778 7.73232 17.5253 6.76263 17.0202C5.79293 16.5152 4.99832 15.8114 4.37879 14.9091L0.5 9.21212L0.883838 8.82828C1.1532 8.54545 1.48653 8.38384 1.88384 8.34343C2.28114 8.30303 2.64141 8.39731 2.96465 8.62626L5.18687 10.1616V2.42424C5.18687 2.19529 5.26431 2.00337 5.41919 1.84849C5.57407 1.6936 5.76599 1.61616 5.99495 1.61616C6.22391 1.61616 6.41583 1.6936 6.57071 1.84849C6.72559 2.00337 6.80303 2.19529 6.80303 2.42424V13.2727L3.81313 11.1919L5.73232 13.9798C6.2037 14.6667 6.80303 15.202 7.5303 15.5859C8.25758 15.9697 9.03872 16.1616 9.87374 16.1616C11.2609 16.1616 12.4428 15.6734 13.4192 14.697C14.3956 13.7205 14.8838 12.5387 14.8838 11.1515V3.23232C14.8838 3.00337 14.9613 2.81145 15.1162 2.65657C15.271 2.50168 15.463 2.42424 15.6919 2.42424C15.9209 2.42424 16.1128 2.50168 16.2677 2.65657C16.4226 2.81145 16.5 3.00337 16.5 3.23232V11.1515C16.5 12.9966 15.8569 14.5623 14.5707 15.8485C13.2845 17.1347 11.7189 17.7778 9.87374 17.7778ZM8.41919 8.88889V0.808081C8.41919 0.579125 8.49663 0.387205 8.65152 0.232323C8.8064 0.0774411 8.99832 0 9.22727 0C9.45623 0 9.64815 0.0774411 9.80303 0.232323C9.95791 0.387205 10.0354 0.579125 10.0354 0.808081V8.88889H8.41919ZM11.6515 8.88889V1.61616C11.6515 1.38721 11.729 1.19529 11.8838 1.0404C12.0387 0.885522 12.2306 0.808081 12.4596 0.808081C12.6886 0.808081 12.8805 0.885522 13.0354 1.0404C13.1902 1.19529 13.2677 1.38721 13.2677 1.61616V8.88889H11.6515Z" fill="black"/>
</svg>
